<?xml version="1.0" encoding="utf-8"?>
<!-- Generator: Adobe Illustrator 23.0.1, SVG Export Plug-In . SVG Version: 6.00 Build 0)  -->
<svg version="1.1" id="Layer_1" xmlns="http://www.w3.org/2000/svg" xmlns:xlink="http://www.w3.org/1999/xlink" x="0px" y="0px"
	 viewBox="0 0 20 20" style="enable-background:new 0 0 20 20;" xml:space="preserve">
<style type="text/css">
	.st0{display:none;}
	.st1{display:inline;fill:#707071;}
	.st2{display:none;fill:none;stroke:#707071;stroke-width:2;stroke-linejoin:round;}
	.st3{fill:none;}
	.st4{fill:#707070;}
</style>
<g class="st0">
	<path class="st1" d="M17.5,2.3v15.4H2.3V2.3H17.5 M19.5,0.3H0.3v19.4h19.2V0.3L19.5,0.3z"/>
</g>
<path class="st2" d="M3,2h14c0.6,0,1,0.4,1,1v14c0,0.6-0.4,1-1,1H3c-0.6,0-1-0.4-1-1V3C2,2.4,2.4,2,3,2z"/>
<title>_cq_icon</title>
<rect class="st3" width="20" height="20"/>
<rect x="2" y="2" class="st4" width="4" height="4"/>
<rect x="2" y="14" class="st4" width="4" height="4"/>
<rect x="8" y="2" class="st4" width="4" height="4"/>
<rect x="14" y="2" class="st4" width="4" height="4"/>
<rect x="2" y="8" class="st4" width="10" height="4"/>
<rect x="14" y="8" class="st4" width="4" height="4"/>
<rect x="8" y="14" class="st4" width="10" height="4"/>
<rect x="8" y="2" class="st4" width="10" height="4"/>
</svg>
